<?xml version="1.0" encoding="UTF-8" standalone="no"?>
<svg
   xmlns:dc="http://purl.org/dc/elements/1.1/"
   xmlns:cc="http://creativecommons.org/ns#"
   xmlns:rdf="http://www.w3.org/1999/02/22-rdf-syntax-ns#"
   xmlns:svg="http://www.w3.org/2000/svg"
   xmlns="http://www.w3.org/2000/svg"
   xmlns:sodipodi="http://sodipodi.sourceforge.net/DTD/sodipodi-0.dtd"
   xmlns:inkscape="http://www.inkscape.org/namespaces/inkscape"
   sodipodi:docname="Bandai Namco Holdings.svg"
   inkscape:version="1.0 (4035a4fb49, 2020-05-01)"
   id="svg4896"
   version="1.1"
   viewBox="0 0 42.398472 30.019737"
   height="30.019737mm"
   width="42.398472mm">
  <defs
     id="defs4890" />
  <sodipodi:namedview
     inkscape:window-maximized="1"
     inkscape:window-y="-8"
     inkscape:window-x="-8"
     inkscape:window-height="1017"
     inkscape:window-width="1920"
     fit-margin-bottom="0"
     fit-margin-right="0"
     fit-margin-left="0"
     fit-margin-top="0"
     showgrid="false"
     inkscape:document-rotation="0"
     inkscape:current-layer="layer1"
     inkscape:document-units="mm"
     inkscape:cy="-126.52324"
     inkscape:cx="-177.44689"
     inkscape:zoom="0.7"
     inkscape:pageshadow="2"
     inkscape:pageopacity="0.0"
     borderopacity="1.0"
     bordercolor="#666666"
     pagecolor="#ffffff"
     id="base" />
  <metadata
     id="metadata4893">
    <rdf:RDF>
      <cc:Work
         rdf:about="">
        <dc:format>image/svg+xml</dc:format>
        <dc:type
           rdf:resource="http://purl.org/dc/dcmitype/StillImage" />
        <dc:title></dc:title>
      </cc:Work>
    </rdf:RDF>
  </metadata>
  <g
     transform="translate(-97.674275,-182.70945)"
     id="layer1"
     inkscape:groupmode="layer"
     inkscape:label="Layer 1">
    <g
       transform="matrix(0.26507484,0,0,0.26507484,89.645565,188.20108)"
       id="g3345">
      <path
         d="m 183.51052,43.873767 c 2.52511,-8.17848 -0.87916,-16.12837 -7.18701,-23.15372 -0.57363,-0.64655 -1.21621,-1.36406 -1.90812,-2.13678 1.97909,-7.53589 1.00136,-13.8693303 -3.08098,-19.45966033 -5.41091,-7.40380997 -16.88331,-9.08523997 -27.0192,-7.20275997 -0.10449,0.0279 -0.2777,0.057 -0.50289,0.1084 -5.21188,-3.0040897 -11.32455,-5.2177497 -18.84469,-6.2841497 -18.1488,-2.56457 -31.70276,4.0725 -46.15757,11.9473997 -11.91986,6.49514 -22.02221,12.9448503 -27.20253,22.9940803 -1.57895,0.96783 -3.10069,2.00071 -4.55745,3.11841 -14.488278,11.11166 -15.054027,23.98751 1.88449,36.37455 3.31554,2.4285 8.7383,5.16651 13.16171,6.7415 0.11455,0.0391 0.2386,0.081 0.35091,0.12628 2.16633,2.12688 4.71312,4.53572 6.16786,5.64353 7.73499,5.85641 17.04301,10.9086 29.3492,12.59792 14.76822,2.03429 32.95842,1.99881 46.28771,-2.6414 0.90475,-0.31738 1.79576,-0.64856 2.65715,-1.01125 1.81548,0.11846 3.60929,0.18942 5.36761,0.19724 15.68482,0.0928 29.04361,-4.28735 31.08382,-20.02541 0.30956,-2.43046 0,-4.74465 -0.69191,-6.9958 -0.50457,-1.64199 -1.21621,-3.24654 -2.03424,-4.83728 0.12795,-0.26206 0.25647,-0.52021 0.38219,-0.77864 0.74115,-1.56119 2.01457,-3.78469 2.49355,-5.32224 z"
         style="fill:none;stroke:#ffffff;stroke-width:11.8272;stroke-linecap:butt;stroke-linejoin:miter;stroke-miterlimit:4;stroke-dasharray:none;stroke-opacity:1"
         id="path2698" />
      <path
         d="m 184.34554,44.006857 c 2.55467,-8.31453 -0.889,-16.39646 -7.26781,-23.54004 -0.5815,-0.65644 -1.23202,-1.38574 -1.93176,-2.17226 -0.16372,0.61498 -0.33917,1.23789 -0.542,1.87063 -0.86732,2.92134 -1.49023,5.68494 -1.44486,8.08589 0.1397,7.23624 3.51855,13.46328 7.11403,19.80264 0.40399,0.71164 0.79049,1.43111 1.16302,2.15454 0.13019,-0.26597 0.25815,-0.52803 0.3861,-0.79048 0.74909,-1.58678 2.03827,-3.84777 2.52316,-5.41092"
         style="fill:#fabe00;fill-opacity:1;fill-rule:nonzero;stroke:none;stroke-width:1.97119"
         id="path2702" />
      <path
         d="m 104.81398,75.236357 c -9.59774,-1.61243 -24.13932,-2.93514 -35.96056,-5.66521 -2.49555,-0.5776 -4.83141,-1.23794 -6.94851,-2.00669 2.18806,2.16437 4.76637,4.6126 6.23687,5.73818 7.82171,5.95498 17.23617,11.09193 29.68429,12.8088 14.93579,2.06782 33.33296,2.03234 46.81401,-2.68671 0.91464,-0.32129 1.81548,-0.6584 2.68872,-1.02701 -1.40546,-0.0866 -2.8188,-0.19725 -4.24399,-0.34085 -14.25767,-1.41334 -29.13038,-5.28083 -38.27083,-6.82034"
         style="fill:#fabe00;fill-opacity:1;fill-rule:nonzero;stroke:none;stroke-width:1.97119"
         id="path2706" />
      <path
         d="m 164.05203,6.5406567 c 4.10206,3.9542103 8.09376,8.3834803 11.09389,11.7542403 2.00278,-7.66202 1.0132,-14.1000003 -3.11451,-19.7829203 -5.47399,-7.52606 -17.07647,-9.2370497 -27.32869,-7.323 -0.10449,0.0279 -0.27995,0.057 -0.5068,0.11007 0.69979,0.40231 1.39166,0.82396 2.06581,1.25762 5.7441,3.52452 12.37715,8.77384 17.79007,13.98371"
         style="fill:#e60012;fill-opacity:1;fill-rule:nonzero;stroke:none;stroke-width:1.97119"
         id="path2710" />
      <path
         d="m 150.34904,80.931117 c -0.95013,0.55983 -1.9692,1.03294 -3.02186,1.4666 1.83521,0.12013 3.65069,0.19333 5.43064,0.20115 15.86027,0.0928 29.37288,-4.35831 31.43473,-20.35855 0.31514,-2.47187 0,-4.8255 -0.69975,-7.11403 -0.50847,-1.66965 -1.22811,-3.29979 -2.05597,-4.91814 -0.98957,1.983 -2.16633,3.97785 -3.50089,5.94509 -6.77698,9.96837 -17.26372,18.72445 -27.5869,24.778"
         style="fill:#e60012;fill-opacity:1;fill-rule:nonzero;stroke:none;stroke-width:1.97119"
         id="path2714" />
      <path
         d="m 58.64909,64.258747 c -11.27917,-11.92774 -13.93443,-26.20709 -9.6687,-39.1539 0.542,-1.644 1.20045,-3.19335 1.96132,-4.66983 -1.59667,0.9817 -3.13814,2.0343 -4.61065,3.16775 -14.651939,11.2989 -15.225511,24.38965 1.90617,36.98165 3.35298,2.46795 8.83883,5.25127 13.31347,6.85387 0.11623,0.0391 0.2386,0.081 0.35314,0.12628 -1.34438,-1.3345 -2.5488,-2.5606 -3.25447,-3.30571"
         style="fill:#e60012;fill-opacity:1;fill-rule:nonzero;stroke:none;stroke-width:1.97119"
         id="path2718" />
      <path
         d="m 102.74834,2.4236167 c 18.14092,-5.47009 36.13998,-9.91121 36.95801,-10.10242 0.58743,-0.14584 3.25447,-0.7569 4.48845,-1.02103 -5.27301,-3.0553797 -11.45469,-5.3045197 -19.05954,-6.3906497 -18.35582,-2.60592 -32.06356,4.14346 -46.68393,12.1484997 -12.05385,6.60349 -22.27058,13.1597003 -27.51007,23.3764403 3.98975,-2.47779 8.31258,-4.51404 12.66894,-6.25263 6.49905,-2.58424 30.2697,-9.0773703 39.13814,-11.7582103"
         style="fill:#fabe00;fill-opacity:1;fill-rule:nonzero;stroke:none;stroke-width:1.97119"
         id="path2722" />
      <path
         d="m 180.27286,48.053497 c -3.59548,-6.33936 -6.97411,-12.56641 -7.11403,-19.8027 -0.0447,-2.4009 0.57754,-5.16449 1.44486,-8.08583 0.20507,-0.63275 0.37828,-1.25566 0.542,-1.86868 -3.00018,-3.37276 -6.99188,-7.80002 -11.09394,-11.7562503 -5.41293,-5.20987 -12.04597,-10.45723 -17.79008,-13.98371 -0.67415,-0.4336 -1.36406,-0.85547 -2.06581,-1.25761 -1.23593,0.26429 -3.90102,0.8772 -4.48839,1.02108 -0.81809,0.19334 -18.81709,4.63429 -36.96002,10.10438 -8.86839,2.68084 -32.6391,9.1720203 -39.13619,11.7582003 -4.35831,1.73665 -8.68114,3.7729 -12.67083,6.25264 -0.76088,1.47643 -1.41731,3.02577 -1.96138,4.66977 -4.26366,12.94687 -1.61047,27.22622 9.67071,39.15396 0.70572,0.74511 1.90813,1.97115 3.25448,3.30565 2.119,0.76881 4.4529,1.42915 6.94846,2.00669 11.82129,2.73013 26.36477,4.05278 35.96056,5.66527 9.14044,1.53945 24.01315,5.40694 38.27082,6.82034 1.4272,0.1436 2.83853,0.25424 4.24405,0.34085 1.0526,-0.4336 2.06972,-0.90677 3.01985,-1.46659 10.32318,-6.05355 20.80997,-14.81158 27.58891,-24.778 1.33254,-1.9692 2.51132,-3.96209 3.49888,-5.94509 -0.3727,-0.72343 -0.75892,-1.44295 -1.16302,-2.15454"
         style="fill:#ed6d00;fill-opacity:1;fill-rule:nonzero;stroke:none;stroke-width:1.97119"
         id="path2726" />
      <path
         d="m 68.68088,22.511277 h 1.48827 c 1.71692,0 3.36678,0.17322 3.36678,2.0205 0,1.69127 -1.7386,2.13085 -3.42003,2.13085 h -1.43502 z m -5.1251,16.29588 h 8.11343 c 3.44171,0 7.48661,-1.01315 7.48661,-5.81501 0,-2.44432 -1.31874,-3.88722 -3.88129,-4.42732 v -0.0648 c 2.14666,-0.75103 3.38651,-2.15649 3.38651,-4.69144 0,-3.45747 -2.67492,-5.09359 -6.25063,-5.09359 h -8.85463 z m 5.1251,-8.51357 h 1.57303 c 1.76419,0 3.77485,0.19334 3.77485,2.37923 0,2.05005 -1.94953,2.3339 -3.82614,2.3339 h -1.52174 z"
         style="fill:#ffffff;fill-opacity:1;fill-rule:nonzero;stroke:none;stroke-width:1.97119"
         id="path2730" />
      <path
         d="m 78.83984,38.806437 h 5.21384 l 1.51783,-4.28735 h 7.21656 l 1.43106,4.28735 h 5.62385 l -7.41369,-20.09241 h -6.28812 z m 12.73593,-8.08584 h -4.82549 l 2.48567,-7.85523 h 0.0503 z"
         style="fill:#ffffff;fill-opacity:1;fill-rule:nonzero;stroke:none;stroke-width:1.97119"
         id="path2734" />
      <path
         d="m 100.85541,18.714577 h 6.54046 l 6.50693,13.64466 h 0.0503 l -0.0732,-13.64466 h 4.68156 v 20.09242 h -6.36892 l -6.73759,-13.72937 h -0.0503 l 0.15981,13.72937 h -4.70922 z"
         style="fill:#ffffff;fill-opacity:1;fill-rule:nonzero;stroke:none;stroke-width:1.97119"
         id="path2738" />
      <path
         d="m 121.48027,38.806437 h 7.00758 c 6.55622,0 11.3778,-2.61972 11.3778,-10.12801 0,-7.78036 -4.67965,-9.9644 -11.3778,-9.9644 h -7.00758 z m 5.12706,-16.12244 h 1.99289 c 3.74334,0 5.97868,2.07368 5.97868,6.07523 0,4.0055 -2.15058,6.08115 -5.97868,6.08115 h -1.99289 z"
         style="fill:#ffffff;fill-opacity:1;fill-rule:nonzero;stroke:none;stroke-width:1.97119"
         id="path2750" />
      <path
         d="m 138.71208,38.806437 h 5.21183 l 1.51783,-4.28735 h 7.21857 l 1.43301,4.28735 h 5.63174 l -7.41565,-20.09241 h -6.29008 z m 12.74577,-8.08584 h -4.83533 l 2.48963,-7.85523 h 0.0503 z"
         style="fill:#ffffff;fill-opacity:1;fill-rule:nonzero;stroke:none;stroke-width:1.97119"
         id="path2754" />
      <path
         id="path2756"
         style="fill:#ffffff;fill-opacity:1;fill-rule:nonzero;stroke:none;stroke-width:1.97119"
         d="m 160.50761,18.715197 h 5.12712 v 20.09241 h -5.12712 z" />
      <path
         d="m 63.55656,43.179107 h 6.60152 l 6.57002,13.65057 h 0.0631 l -0.0888,-13.65057 h 4.73682 v 20.0885 h -6.43994 l -6.79073,-13.72942 h -0.0559 l 0.1693,13.72942 h -4.76833 z"
         style="fill:#ffffff;fill-opacity:1;fill-rule:nonzero;stroke:none;stroke-width:1.97119"
         id="path2760" />
      <path
         d="m 82.47729,63.267047 h 5.271 l 1.52174,-4.27947 h 7.30328 l 1.44296,4.27947 h 5.69085 l -7.4965,-20.0885 h -6.3512 z m 12.87585,-8.08192 h -4.87869 l 2.50343,-7.86311 h 0.0559 z"
         style="fill:#ffffff;fill-opacity:1;fill-rule:nonzero;stroke:none;stroke-width:1.97119"
         id="path2764" />
      <path
         d="m 104.73944,43.179107 h 8.1706 l 3.3688,13.35488 h 0.0559 l 3.56001,-13.35488 h 7.85517 v 20.0885 h -5.0699 l 0.0866,-15.4227 h -0.0592 l -4.20063,15.4227 h -4.76241 l -3.98969,-15.4227 h -0.0503 l 0.1084,15.4227 h -5.07191 z"
         style="fill:#ffffff;fill-opacity:1;fill-rule:nonzero;stroke:none;stroke-width:1.97119"
         id="path2768" />
      <path
         d="m 146.42578,62.813837 c -1.48039,0.36878 -3.12238,0.81015 -5.7697,0.81015 -5.18623,0 -11.1767,-2.7104 -11.1767,-10.31134 0,-6.98987 4.73677,-10.48478 11.14318,-10.48478 1.97909,0 3.89906,0.46713 5.76578,1.04075 l -0.41795,4.34457 c -1.66764,-0.94029 -3.28599,-1.40943 -5.06404,-1.40943 -3.67824,0 -6.07523,2.76757 -6.07523,6.50889 0,3.94835 2.70057,6.34332 6.48922,6.34332 1.69915,0 3.4259,-0.47103 4.84913,-1.04472 z"
         style="fill:#ffffff;fill-opacity:1;fill-rule:nonzero;stroke:none;stroke-width:1.97119"
         id="path2780" />
      <path
         d="m 147.21822,53.229277 c 0,6.38864 3.3964,10.39415 9.75548,10.39415 6.34333,0 9.74363,-4.00551 9.74363,-10.39415 0,-6.44385 -3.34119,-10.40007 -9.74363,-10.40007 -6.41233,0 -9.75548,3.95622 -9.75548,10.40007 m 5.35375,0 c 0,-3.48703 1.24778,-6.42412 4.40173,-6.42412 3.14205,0 4.39972,2.93709 4.39972,6.42412 0,3.30571 -1.25767,6.42614 -4.39972,6.42614 -3.15395,0 -4.40173,-3.12043 -4.40173,-6.42614"
         style="fill:#ffffff;fill-opacity:1;fill-rule:nonzero;stroke:none;stroke-width:1.97119"
         id="path2784" />
    </g>
  </g>
</svg>
